<svg width="128" height="128" viewBox="0 0 128 128" fill="none" xmlns="http://www.w3.org/2000/svg">
<g clip-path="url(#clip0)">
<path d="M61.5 6.5H69.5L79.5 13L96.3013 24L111 32.5L115 40.5L113.5 49L107 96.5L65 122L50 115.5L30.5 104.5L13.5 92.5V37L21.5 29.5L40 19L61.5 6.5Z" fill="#FEFEFE"/>
<path d="M109.01 28.64L71.28 6.24001C69.03 4.91001 66.51 4.24001 64 4.24001C61.49 4.24001 58.97 4.91001 56.72 6.25001L18.98 28.65C14.48 31.32 11.7 36.26 11.7 41.61V86.41C11.7 91.76 14.47 96.7 18.98 99.37L56.71 121.77C58.96 123.11 61.47 123.77 63.99 123.77C66.5 123.77 69.02 123.1 71.27 121.77L109.01 99.37C113.51 96.7 116.29 91.75 116.29 86.41V41.6C116.29 36.26 113.52 31.31 109.01 28.64ZM79.79 98.59L79.85 101.81C79.85 102.2 79.6 102.64 79.3 102.8L77.39 103.9C77.09 104.05 76.83 103.87 76.83 103.48L76.8 100.31C75.17 100.99 73.51 101.15 72.46 100.73C72.26 100.65 72.17 100.36 72.25 100.02L72.94 97.11C73 96.88 73.12 96.65 73.28 96.51C73.34 96.45 73.4 96.41 73.46 96.38C73.57 96.32 73.68 96.31 73.77 96.35C74.91 96.73 76.36 96.55 77.76 95.85C79.54 94.95 80.73 93.13 80.71 91.33C80.69 89.69 79.81 89.02 77.66 89C74.92 89.01 72.36 88.47 72.32 84.43C72.29 81.11 74.01 77.65 76.75 75.47L76.72 72.22C76.72 71.82 76.96 71.38 77.27 71.22L79.12 70.04C79.42 69.89 79.68 70.08 79.68 70.47L79.71 73.72C81.07 73.18 82.25 73.03 83.32 73.28C83.55 73.34 83.66 73.66 83.56 74.03L82.84 76.91C82.78 77.13 82.66 77.35 82.51 77.49C82.45 77.55 82.38 77.6 82.32 77.63C82.22 77.68 82.13 77.69 82.04 77.68C81.55 77.57 80.39 77.32 78.56 78.24C76.64 79.21 75.97 80.88 75.98 82.12C76 83.6 76.75 84.05 79.37 84.09C82.86 84.15 84.36 85.67 84.4 89.18C84.45 92.62 82.61 96.33 79.79 98.59ZM99.57 93.18C99.57 93.48 99.53 93.76 99.28 93.9L89.74 99.7C89.49 99.85 89.29 99.72 89.29 99.42V96.96C89.29 96.66 89.47 96.5 89.72 96.35L99.12 90.73C99.37 90.58 99.57 90.71 99.57 91.01V93.18ZM106.13 38.09L70.43 60.14C65.98 62.74 62.7 65.66 62.69 71.03V115.02C62.69 118.23 63.99 120.31 65.98 120.92C65.33 121.03 64.66 121.11 64 121.11C61.91 121.11 59.85 120.54 58.04 119.47L20.31 97.07C16.62 94.88 14.33 90.79 14.33 86.4V41.6C14.33 37.21 16.62 33.12 20.31 30.93L58.05 8.53001C59.86 7.46001 61.92 6.89001 64.01 6.89001C66.1 6.89001 68.16 7.46001 69.97 8.53001L107.71 30.93C110.82 32.78 112.92 35.97 113.51 39.56C112.24 36.89 109.42 36.17 106.13 38.09Z" fill="#293138"/>
</g>
<defs>
<clipPath id="clip0">
<rect width="128" height="128" fill="white"/>
</clipPath>
</defs>
</svg>
