<?xml version="1.0" encoding="utf-8"?>
<!DOCTYPE svg PUBLIC "-//W3C//DTD SVG 20010904//EN" "http://www.w3.org/TR/2001/REC-SVG-20010904/DTD/svg10.dtd">
<svg version="1.0" xmlns="http://www.w3.org/2000/svg" width="275px" height="275px" viewBox="0 0 275 275" preserveAspectRatio="xMidYMid meet">
 <g fill="#000000">
  <path d="M163 220.3 c-32.2 -3 -44.7 -6.8 -63.1 -18.9 -16.3 -10.8 -31 -28.6 -42.1 -51 -6.4 -12.8 -8.3 -18 -12.8 -35.2 -2.2 -8.5 -4.9 -17.4 -6 -19.9 -3.5 -8 -2.1 -17.7 3.2 -21.9 1.4 -1.1 2.8 -3.5 3.2 -5.6 0.5 -2.8 1.3 -3.8 3.9 -4.8 6 -2.2 6.1 -2.4 5.8 -7.2 -0.2 -4.1 0.1 -4.8 2.9 -7 2.8 -2.2 2.9 -2.6 1.6 -3.7 -1.1 -0.9 -1.6 -3.1 -1.6 -6.7 0 -6.3 1.3 -7.4 8.9 -7.4 6.5 0 9.1 2.3 9.1 8 0 4 0 4 4.1 4 5.2 0 7.9 1.5 7.9 4.4 0 2.6 2.6 4 9.3 5.1 2.3 0.4 4.3 1.5 5.2 2.9 0.9 1.3 3.3 2.8 5.5 3.5 2.9 0.9 4 1.7 4 3.1 0 1.6 0.7 2 3.5 2 4.5 0 15.6 4.5 19 7.6 2.2 2 2.6 3.1 2.3 6.7 -0.3 4.2 -0.3 4.2 -4.9 4.5 -2.5 0.2 -6.5 -0.4 -8.9 -1.2 -2.4 -0.8 -4.8 -1.2 -5.3 -0.9 -2.1 1.3 1.2 35.3 4.9 49.2 3.2 12.3 7.9 21 17.8 32.9 12.7 15.1 27.6 25.1 45.8 30.3 7.6 2.2 7.6 2.2 11.7 -1.9 4.6 -4.7 6.8 -5.5 13.2 -5 4.1 0.3 4.4 0.5 4.7 3.5 0.2 1.8 -0.1 4.1 -0.7 5.1 -0.9 1.8 -0.6 2 3.7 2.5 2.6 0.3 5.3 0.1 5.9 -0.5 0.7 -0.6 3.1 -0.7 5.5 -0.3 2.4 0.3 7.4 0.9 11.3 1.2 3.8 0.2 7.3 1 7.7 1.6 0.4 0.7 0.8 3.3 0.8 5.9 0 5.4 -0.8 6.1 -8 7.3 -2.5 0.4 -5.8 1.4 -7.4 2.2 -1.7 0.9 -4.5 1.3 -7 1.1 -2.2 -0.3 -5.9 0.2 -8.1 0.9 -8.5 2.9 -41.6 5.1 -56.5 3.6z m-2.5 -26.1 c-0.6 -0.5 -3.1 -1.6 -5.6 -2.6 -7.2 -2.6 -14 -7.4 -15.2 -10.6 -0.6 -1.7 -1.7 -3 -2.5 -3 -0.8 0 -0.4 1.2 1.2 3.3 1.5 1.9 2.6 3.9 2.6 4.5 0 0.7 0.6 1.2 1.4 1.2 0.9 0 1.6 1.2 1.8 3.2 0.2 2.7 0.8 3.4 3.3 3.9 4.5 1 14 1 13 0.1z m-31.5 -24.7 c0 -3.1 -0.3 -3.5 -2.5 -3.5 -2.2 0 -2.5 -0.4 -2.5 -3.4 0 -3 -0.4 -3.5 -3 -4.1 -2.1 -0.5 -3 -1.3 -3 -2.6 0 -1 -0.4 -1.9 -1 -1.9 -0.5 0 -1 -0.9 -1 -1.9 0 -1.1 -0.5 -2.3 -1.1 -2.7 -0.6 -0.4 -1 -2.9 -0.8 -6.3 0.4 -7.3 -0.9 -14.1 -2.7 -14.1 -0.8 0 -1.4 0.5 -1.4 1 0 1.4 -7.6 1.2 -8.8 -0.2 -0.5 -0.7 -1.2 -2.4 -1.5 -3.8 -0.4 -2.3 -0.4 -2.2 -0.6 0.5 -0.2 4 -1.1 5.2 -4.4 6 -3.6 0.9 -3.2 3.9 0.6 4.3 1.9 0.2 2.7 0.9 2.7 2.2 0 1.5 1 2 4.5 2.6 6.1 0.9 9.5 5.1 9.5 11.7 0 4 0.3 4.7 1.9 4.7 2.7 0 6.1 4.7 6.1 8.4 0 2.6 0.6 3.4 3.8 4.8 5.1 2.2 5.2 2.2 5.2 -1.7z m-25.4 -56.5 c1.9 0 3.4 0.5 3.4 1 0 0.6 0.7 1 1.5 1 1.2 0 1.5 -1.3 1.5 -5.9 0 -6 0 -6 -3.2 -6.3 -3.1 -0.3 -3.3 -0.5 -3.6 -4.8 -0.2 -2.4 -0.1 -5.9 0.3 -7.7 0.5 -2.7 1.1 -3.3 3.3 -3.4 2.5 -0.2 2.5 -0.2 0.3 -0.6 -3.7 -0.7 -7.1 0.5 -7.1 2.6 0 1.5 -1.1 1.9 -6.1 2.5 -4.2 0.4 -6.6 1.2 -7.5 2.3 -1.1 1.6 -0.9 1.8 2.2 2.1 3.9 0.4 4 0.6 2.4 11.7 -0.6 3.8 -1.6 7.3 -2.3 7.7 -0.7 0.5 0 0.8 1.9 0.8 2.2 0 3.6 0.8 5.4 3.3 2.5 3.2 2.5 3.2 3.3 -1.5 0.9 -4.6 1.1 -4.8 4.3 -4.8z m-6.1 -36 c0.3 -0.5 0.1 -1 -0.4 -1 -0.6 0 -1.1 -0.7 -1.1 -1.5 0 -0.8 -0.7 -1.5 -1.5 -1.5 -0.9 0 -1.5 0.9 -1.5 2.5 0 1.8 0.5 2.5 1.9 2.5 1.1 0 2.3 -0.4 2.6 -1z"/>
 </g>
 <g fill="#ffffff">
  <path d="M126.5 273.9 c-32.1 -2.5 -62.3 -16.6 -85.5 -39.9 -20.3 -20.2 -33.5 -45.6 -38.6 -73.7 -2 -11.5 -2 -34.1 0 -45.6 5.1 -28.1 18.3 -53.5 38.6 -73.7 20.2 -20.3 45.6 -33.5 73.7 -38.6 11.5 -2 34.1 -2 45.6 0 28.1 5.1 53.5 18.3 73.7 38.6 20.3 20.2 33.5 45.6 38.6 73.7 2 11.5 2 34.1 0 45.6 -5.1 28.1 -18.3 53.5 -38.6 73.7 -28.6 28.7 -67.5 43.1 -107.5 39.9z m72.3 -57.4 c7.3 -0.7 15.6 -2.1 18.3 -3 2.8 -1 6.7 -1.5 8.7 -1.2 2 0.2 4.8 -0.2 6.2 -0.8 1.4 -0.7 4.6 -1.6 7.2 -2 6.4 -1 8.3 -2.5 7.4 -5.8 -0.6 -2.6 -0.9 -2.7 -7.2 -2.7 -3.6 0 -7.4 -0.5 -8.5 -1 -1.4 -0.8 -2.5 -0.7 -4.1 0.4 -1.8 1.2 -3.2 1.3 -6.3 0.6 -2.2 -0.5 -5.9 -1 -8.2 -1 -4.7 0 -6 -1.1 -3.7 -3.1 2 -1.7 4.5 -6.5 3.7 -7.3 -2.3 -2.2 -11.7 2.3 -10.6 5.1 0.4 1.1 0.3 1.4 -0.6 0.9 -0.7 -0.4 -1.9 0.2 -2.9 1.4 -1.7 2.1 -2.1 2.2 -7.8 1 -13.8 -2.8 -28.8 -9.9 -40.3 -19 -6.9 -5.5 -20.1 -21.5 -24.4 -29.8 -5.9 -11.2 -8.7 -23.2 -10.6 -45.7 -2.5 -28.3 -2.3 -29 8.5 -25.6 3.7 1.1 7.3 2.1 8 2.1 2 0 2.6 -1.7 1.4 -3.9 -1.1 -2.1 -11.3 -7.5 -16.5 -8.6 -2.8 -0.7 -2.9 -0.6 -1.1 0.7 3.1 2.4 1.4 6.6 -3.7 8.8 -5.2 2.3 -18.2 5 -23.9 5 -2.9 0 -6.8 1.2 -11.7 3.5 -7.6 3.7 -9.7 4.2 -10.3 2.5 -0.5 -1.5 -6.8 0 -6.8 1.6 0 2.1 -3.3 1.7 -5.8 -0.6 -2.5 -2.4 -2.7 -3.1 -1 -4.8 0.9 -0.9 0.9 -1.2 -0.2 -1.2 -2.6 0 -5 3.2 -5 6.9 -0.1 3.6 -0.1 3.6 -1.6 0.7 -2.1 -3.8 -0.6 -7.2 4.1 -9.2 4.6 -1.9 6.2 -1.8 6.8 0.6 0.6 2.3 5.3 4.4 7.6 3.5 1.5 -0.6 1.5 -0.7 0 -1.8 -0.9 -0.7 -1.4 -1.8 -1.2 -2.4 0.3 -0.7 0 -1.3 -0.6 -1.3 -0.6 0 -1.1 -0.4 -1.1 -0.9 0 -0.5 2.4 -1.4 5.2 -2.1 2.9 -0.6 9.8 -2.4 15.3 -4 5.5 -1.6 11.9 -3.2 14.2 -3.6 3.8 -0.6 4.1 -0.5 3.7 1.3 -0.7 2.6 2.4 4 3.3 1.6 0.4 -0.9 0.1 -1.9 -0.5 -2.1 -2.4 -0.8 0 -2.2 3.7 -2.2 3.5 0 3.8 -0.2 3.3 -2.5 -0.3 -1.9 -1.4 -2.8 -4.3 -3.6 -2.1 -0.7 -4.5 -2.2 -5.4 -3.5 -0.9 -1.5 -2.9 -2.5 -5.2 -2.9 -6.5 -1 -10.2 -3.1 -9.6 -5.4 0.6 -2.4 -2.4 -4.3 -5.5 -3.4 -1.2 0.3 -3.4 0.2 -4.8 -0.1 -2.4 -0.6 -2.6 -1 -2.1 -4.7 0.8 -6.3 -3.9 -9.8 -9.4 -6.9 -2.6 1.5 -2.4 5.2 0.6 8 1.4 1.3 2.5 2.8 2.5 3.4 0 0.6 -1.8 2.7 -4.1 4.7 -3.8 3.2 -4 3.7 -2.8 5.6 1.6 2.6 0 7 -2.8 7.9 -7.3 2.4 -9.5 4.7 -6.9 7.4 0.8 0.9 0.8 1.4 -0.2 1.7 -3.1 1.2 -7.3 5.8 -8.3 9.2 -1 3.4 -0.8 4.6 1.4 10.2 1.4 3.5 4.2 12.8 6.2 20.7 2 7.8 4.8 17 6.2 20.4 11.4 28.1 29 51.5 48.2 64.2 18.4 12.1 30.9 15.9 63.1 18.9 8.4 0.9 20.5 0.6 32.8 -0.8z m-124.4 -133.8 c-1 -2.6 -5.4 -3.3 -5.4 -0.8 0 0.7 5.2 3 5.8 2.6 0.1 -0.1 0 -0.9 -0.4 -1.8z m2.6 -3.7 c0 -0.5 -0.9 -1 -2.1 -1 -1.1 0 -1.7 0.5 -1.4 1 0.3 0.6 1.3 1 2.1 1 0.8 0 1.4 -0.4 1.4 -1z m12.8 -4.4 c0.9 -1 -7.2 -0.6 -8.8 0.4 -1 0.6 0.2 0.8 3.4 0.5 2.7 -0.2 5.1 -0.6 5.4 -0.9z"/>
  <path d="M151.4 214 c-13.5 -1.9 -23 -4.5 -32.6 -8.9 -6.4 -2.9 -12.5 -6.9 -8.4 -5.4 1.3 0.4 1.7 0.3 1.2 -0.5 -1.1 -1.8 -0.2 -1.5 7.5 2.4 3.9 1.9 7.8 3.3 8.6 3 0.8 -0.3 1.2 -0.2 0.9 0.3 -0.7 1.1 11.9 6 18.5 7 3 0.5 13.2 1.2 22.7 1.6 10.3 0.5 16.8 1.1 16 1.6 -2.2 1.4 -21.5 0.8 -34.4 -1.1z m-28.4 -8.5 c0 -0.7 -10.1 -5.7 -10.6 -5.2 -0.3 0.2 1.9 1.6 4.8 3 6.1 3 5.8 2.9 5.8 2.2z"/>
  <path d="M143.3 210 c-2.3 -0.5 -5.4 -1.6 -7 -2.5 -1.8 -1 -2.1 -1.4 -0.8 -1.1 1.1 0.3 4.3 1 7 1.7 2.8 0.6 5.4 1.6 6 2 1 1 0.7 1 -5.2 -0.1z"/>
  <path d="M168.9 206.2 c1.1 -0.8 1 -1.1 -0.5 -1.4 -1.8 -0.4 -1.7 -0.5 0.3 -1.6 2.1 -1.2 2.3 -1.1 2 1 -0.2 1.2 -1 2.4 -1.8 2.6 -1.2 0.3 -1.2 0.2 0 -0.6z"/>
  <path d="M163 205 c0 -0.5 -0.7 -0.7 -1.5 -0.4 -2.4 0.9 -1.7 -0.9 1 -2.9 2.2 -1.6 2.6 -1.6 3.1 -0.3 0.3 0.9 0.4 2.3 0 3.1 -0.6 1.7 -2.6 2.1 -2.6 0.5z"/>
  <path d="M180 203.8 c-1.9 -0.5 -6.3 -2 -9.7 -3.4 -7.2 -2.8 -11 -3 -14.3 -0.7 -2.2 1.6 -2.3 1.6 -1.6 -0.2 0.6 -1.8 0.6 -1.8 -1.2 -0.2 -2.4 2.2 -3.9 2.1 -5.2 -0.3 -0.6 -1.1 -2.1 -2 -3.3 -2 -3.8 0 -6.7 -3.6 -4.6 -5.7 0.7 -0.7 -0.9 -1.2 -4.5 -1.7 -6.8 -0.8 -8.4 -1.4 -9.7 -3.7 -0.8 -1.7 -0.6 -1.9 2 -1.9 2.1 0 2.8 0.5 2.7 1.8 -0.1 1.3 0.8 1.8 3.8 2 3.8 0.3 3.8 0.3 1.6 -2.7 -3 -4.3 -9.5 -8.6 -20.3 -13.3 -9.2 -4.1 -12.1 -5.7 -11.3 -6.5 0.2 -0.2 2.7 0.8 5.5 2.2 4.9 2.6 7.1 2.6 7.1 0.1 0 -2 -3.9 -6.6 -5.7 -6.6 -1.8 0 -7.3 -3.8 -7.3 -5.1 0 -0.5 0.9 -0.9 2 -0.9 3.3 0 3.5 -2.7 0.5 -6.6 -3 -4 -4.1 -4 -2.6 0 0.7 1.6 0.7 2.6 0.1 2.6 -0.5 0 -1.2 -1.1 -1.6 -2.5 -0.9 -3.7 -4.2 -5.2 -6 -2.8 -0.7 1 -1.4 1.3 -1.4 0.6 0 -0.6 -1 -1.3 -2.2 -1.5 -1.6 -0.2 -2.4 -1.2 -2.9 -3.6 -0.4 -1.9 -2.2 -5 -4 -6.9 -2.8 -2.9 -3 -3.3 -1 -2.3 3.5 1.8 5 -0.2 2.9 -3.8 -0.8 -1.5 -1.3 -3.3 -1.1 -3.9 0.3 -0.7 -0.1 -1.3 -0.8 -1.3 -0.7 0 -0.9 0.3 -0.6 0.6 0.8 0.8 -3.6 4.4 -5.3 4.4 -0.9 0 -1.1 -1.1 -0.7 -3.6 0.4 -2.5 0.2 -3.4 -0.6 -3.1 -0.7 0.2 -1.1 1.8 -0.9 3.7 0.3 2.7 0.1 3.2 -1.2 2.7 -2.5 -1 -1.9 0.6 1.4 3.8 2.7 2.6 2.8 2.9 1.2 4.1 -1.9 1.4 -4.2 0.2 -4.2 -2.3 0 -0.8 -1.1 -2.5 -2.5 -3.9 -1.3 -1.3 -2.2 -3 -1.9 -3.8 0.3 -0.8 -0.6 -2.2 -1.9 -3.2 -2.2 -1.7 -2.3 -2 -1 -4.1 1.8 -2.7 3.5 -2.9 5.4 -0.7 1 1.3 1 1.7 -0.1 2.4 -1.1 0.7 -1.2 1.4 -0.2 3.4 1.7 3.8 3.2 3.2 3.2 -1.2 0 -4.9 -1.7 -7.2 -6 -8.1 -2.6 -0.5 -3.6 -1.3 -3.8 -2.9 -0.2 -1.2 0.1 -2.2 0.6 -2.2 0.5 0 1.2 -0.9 1.5 -2 0.3 -1.3 1.4 -2 3 -2 4.1 0 5.3 -2.5 3.3 -6.7 -2 -4.2 -1.7 -4.7 3.1 -4.9 2.4 0 4.2 -0.8 5.4 -2.2 0.9 -1.2 2.6 -2.2 3.8 -2.2 1.1 0 2.4 -0.7 2.8 -1.5 0.7 -1.2 1.6 -1.3 4.1 -0.6 3 0.9 4.7 -0.2 2 -1.2 -1.7 -0.6 3.6 -2.7 6.8 -2.7 1.4 0 3.4 -0.5 4.5 -1.1 3.6 -1.9 5.1 0.6 4.8 8 -0.2 3.6 -0.1 7.1 0.3 7.6 0.3 0.6 0.8 5.6 1 11.2 0.1 5.7 0.6 10.3 1.1 10.3 1.3 0 0.7 3.1 -0.8 3.6 -0.8 0.4 -1.5 1.3 -1.5 2.1 0 1.3 0.3 1.3 1.5 0.3 1.7 -1.4 1.3 -2.3 4.5 10.5 1.3 5 2.7 9.5 3.1 10.1 0.6 0.7 0.3 1.6 -0.6 2.4 -2 1.7 -1.9 2.7 0.4 3.5 1.1 0.3 2.3 1.5 2.6 2.6 0.4 1 1.1 1.6 1.6 1.3 1.3 -0.8 3.5 1.6 7.6 8.1 1.8 2.8 4.6 6.4 6.3 8 1.6 1.6 3 3.6 3 4.6 0 3.2 4.1 6.9 11.8 10.5 9.5 4.5 9.2 4.3 13.5 7.7 2.1 1.6 5.4 3.1 7.7 3.4 2.2 0.3 4 0.9 4 1.4 0 0.4 2.5 1.5 5.5 2.4 3.1 0.9 5.3 2 5 2.5 -0.8 1.2 -4.8 1.1 -9.5 -0.2z m-45.4 -32.4 c-1 -1.4 -2 -2.3 -2.3 -2.1 -0.2 0.3 0.3 1.7 1.3 3.1 0.9 1.5 1.9 2.4 2.2 2.2 0.2 -0.3 -0.3 -1.7 -1.2 -3.2z m-16.5 -27.7 c-0.8 -0.8 -1.1 -0.7 -1.1 0.4 0 0.9 0.3 1.9 0.7 2.3 0.4 0.4 0.9 0.2 1.1 -0.4 0.3 -0.7 -0.1 -1.7 -0.7 -2.3z m-24.1 -15.1 c0 0.5 0.5 0.1 1.1 -0.8 0.8 -1.4 0.4 -2.6 -1.8 -5.3 -3 -3.8 -5 -4.7 -3.3 -1.6 0.5 1.1 1 2.6 1 3.3 -0.1 0.7 -0.9 -0.3 -2 -2.2 -2.5 -4.6 -2.5 -1.7 0 3.9 1.7 3.7 2.2 4.1 3.5 3.1 0.8 -0.7 1.5 -0.9 1.5 -0.4z m12.7 -4.6 c-0.1 -2.2 -0.4 -4 -0.8 -4 -0.3 0 -1.1 -1 -1.7 -2.2 -1.1 -2.3 -1.1 -2.3 -1.2 0.2 -0.3 4.1 0.1 7.4 1.2 8.8 1.9 2.2 2.7 1.3 2.5 -2.8z m-27.3 -7.6 c0.7 -1.9 0.1 -3.1 -2.4 -4.4 -1.7 -0.9 -1.9 -0.8 -1.3 0.7 0.6 1.6 0.5 1.6 -1 0.4 -2.4 -1.9 -2.1 -0.1 0.5 2.6 2.5 2.7 3.4 2.9 4.2 0.7z m0.7 -5.4 c-3 -2.6 -4.9 -2.6 -2.6 0 1 1.1 2.5 2 3.4 2 1.2 -0.1 1 -0.5 -0.8 -2z m6.9 0.2 c0 -0.5 -1.9 -1.9 -4.1 -3.2 -2.8 -1.5 -4 -1.8 -3.7 -0.9 0.2 0.8 2 2.2 3.9 3.1 3.9 2.1 3.9 2.1 3.9 1z m0 -4.1 c-0.8 -0.5 -2.6 -1.2 -4 -1.5 -2.5 -0.7 -2.5 -0.7 0 0.8 1.4 0.9 3.2 1.5 4 1.5 1.3 0 1.3 -0.1 0 -0.8z m0.3 -2.8 c-0.3 -1 -1.4 -2.6 -2.5 -3.6 -1.7 -1.7 -1.8 -1.7 -1.8 0.2 0 1.1 1 2.7 2.2 3.5 2.8 2 2.9 2 2.1 -0.1z m22.2 -7.3 c0.8 -1.6 1.5 -3.5 1.5 -4.2 -0.1 -0.7 -0.7 0.1 -1.5 1.7 -1.4 3 -1.4 3 -0.9 -0.7 0.8 -4.9 -1.3 -5.1 -2.2 -0.3 -0.6 3.3 -0.1 6.5 1 6.5 0.3 0 1.2 -1.3 2.1 -3z"/>
  <path d="M196 203.8 c0 -1.6 2.6 -2 10.1 -1.3 4.4 0.4 7.6 1.1 7.3 1.6 -0.6 1.1 -17.4 0.8 -17.4 -0.3z"/>
  <path d="M233 204 c0 -0.5 2.1 -1 4.8 -0.9 3.8 0.1 4.2 0.2 2.2 0.9 -3.6 1.2 -7 1.2 -7 0z"/>
  <path d="M98.4 191.7 c-4.8 -2.8 -14.6 -12.3 -18 -17.6 -2.1 -3.1 -6.3 -9.4 -9.4 -14.1 -6.2 -9.1 -12.4 -20.9 -11.6 -21.7 0.2 -0.3 1.9 2.4 3.7 5.8 1.7 3.5 4.7 8.2 6.5 10.5 1.9 2.3 3.4 4.4 3.4 4.7 0 0.3 1.1 1.7 2.5 3.1 1.3 1.3 2.7 3.7 3.1 5.3 0.8 3.3 3.2 6.3 5 6.3 0.6 0 2.1 1.6 3.3 3.5 1.1 1.9 2.7 3.5 3.6 3.5 0.8 0 1.5 0.4 1.5 1 0 1.4 3.3 5 4.6 5 1.5 0 6.4 3.9 6.4 5.1 0 1.2 -2.1 1.1 -4.6 -0.4z"/>
  <path d="M116.4 186.5 c-1 -0.8 -1.4 -1.5 -0.8 -1.5 0.5 0 1.9 0.7 3 1.5 1 0.8 1.4 1.5 0.8 1.5 -0.5 0 -1.9 -0.7 -3 -1.5z"/>
  <path d="M99 177.6 c-3.5 -1.3 -5.5 -4.6 -2.7 -4.6 2.3 0 11.7 3.2 11.7 4 0 0.7 -3.7 2.1 -5 1.9 -0.3 0 -2.1 -0.6 -4 -1.3z"/>
  <path d="M111.2 176.9 c-1.8 -1.2 -3.1 -2.3 -2.9 -2.5 0.5 -0.5 9.7 3.5 9.7 4.1 0 1.2 -3.8 0.3 -6.8 -1.6z"/>
  <path d="M116 175.5 c-3.2 -1.8 -1.6 -1.9 3.5 0 3.2 1.1 3.5 1.4 1.5 1.4 -1.4 0 -3.6 -0.6 -5 -1.4z"/>
  <path d="M106.3 172 c-1.3 -0.5 -2.3 -1.2 -2.3 -1.5 0 -0.9 1.6 -0.5 3.6 1 2.2 1.6 1.9 1.8 -1.3 0.5z"/>
  <path d="M94.7 166.1 c-5.6 -3.2 -8.3 -5.6 -5.2 -4.6 1.6 0.6 1.6 0.3 -0.5 -1.4 -1.4 -1.1 -2.1 -2.1 -1.6 -2.1 0.5 0 0.1 -0.9 -0.8 -1.9 -1.7 -1.8 -1.6 -2 0.3 -2.6 1.2 -0.3 2.1 -1 2.1 -1.5 0 -0.4 1.9 -0.3 4.1 0.3 3.9 0.9 4.1 1.1 2.3 2.4 -1.6 1.2 -1.7 1.5 -0.4 2.3 1.3 0.9 1.3 1 0 1 -1.3 0.1 -1.3 0.2 0 1.3 1.6 1.3 3.5 4.1 4.7 6.7 0.4 0.8 1.1 1.8 1.7 2.2 2.9 2 -2.4 0.3 -6.7 -2.1z"/>
  <path d="M83.5 145.8 c-6.2 -3.1 -7.5 -4.3 -7.5 -6.7 0 -0.9 0.7 -1.1 2.3 -0.6 6.7 2.1 7 2 6.3 -1.1 -0.6 -2.7 -0.5 -2.8 0.9 -1 0.8 1.1 1.5 2.7 1.5 3.6 0 0.9 1.1 3.1 2.5 5 1.4 1.9 2.5 3.5 2.5 3.7 0 0.9 -3.2 -0.2 -8.5 -2.9z"/>
  <path d="M61.7 138.3 c-1.8 -2.1 -9.9 -19.3 -9 -19.3 0.3 0 1.2 0.8 2 1.8 1.2 1.5 1.3 1.4 0.8 -1.3 -0.6 -3 -0.6 -3 1 -0.3 0.8 1.5 2 5 2.5 7.8 0.5 2.7 1.8 6.8 2.9 9 2.1 4.5 2.1 4.8 -0.2 2.3z"/>
  <path d="M59 108 c-1.2 -0.8 -1.1 -1 0.8 -1 1.2 0 2.2 0.5 2.2 1 0 1.3 -1.1 1.3 -3 0z"/>
  <path d="M59.1 100.1 c-1 -0.7 -1 -1 -0.1 -1.6 0.6 -0.4 1.6 -0.3 2.2 0.3 1.3 1.3 -0.4 2.3 -2.1 1.3z"/>
  <path d="M66.5 99 c-0.3 -0.5 0 -1 0.7 -1 0.9 0 0.9 -0.3 -0.2 -1 -1.1 -0.7 -0.7 -1 1.8 -1 2.1 0 3.2 0.5 3.2 1.4 0 2.2 -4.3 3.5 -5.5 1.6z"/>
  <path d="M129.6 76.4 c-1.1 -0.7 -1.6 -1.7 -1.3 -2.1 0.4 -0.4 1.5 0.1 2.4 1 2.2 2.1 1.4 3 -1.1 1.1z"/>
  <path d="M84.2 67.8 c-1.4 -1.4 -2.5 -1.9 -3 -1.3 -0.4 0.6 -3.1 0.8 -6.2 0.5 -5.5 -0.5 -5.5 -0.5 4.5 -3 11.6 -2.9 12.1 -2.9 11.7 -1.1 -0.1 0.7 0.3 2 1 2.9 1.1 1.3 1 1.5 -0.4 0.9 -1.2 -0.4 -1.9 0 -2.3 1.4 -0.8 2.5 -2.5 2.4 -5.3 -0.3z"/>
  <path d="M64.5 68 c1.1 -0.5 2.7 -0.9 3.5 -0.9 0.9 0 0.8 0.4 -0.5 0.9 -1.1 0.5 -2.7 0.9 -3.5 0.9 -0.9 0 -0.8 -0.4 0.5 -0.9z"/>
  <path d="M66.9 60.7 c1.3 -1.3 9.1 -2.1 9.1 -0.9 0 0.5 -2.2 1.2 -5 1.4 -2.7 0.1 -4.5 -0.1 -4.1 -0.5z"/>
  <path d="M78.2 59.7 c-1.2 -1.3 -2.2 -3.1 -2.2 -4 0 -1.4 0.4 -1.4 3.5 -0.4 1.9 0.7 3.4 1.5 3.5 2 0.3 5.4 -1.3 6.2 -4.8 2.4z"/>
  <path d="M63 38.4 c0 -2 2.8 -3.6 5 -2.9 3.2 1 2.4 3.2 -1.5 3.7 -2.2 0.3 -3.5 0 -3.5 -0.8z"/>
 </g>
</svg>